<?xml version="1.0" encoding="iso-8859-1"?>
<!-- Generator: Adobe Illustrator 19.0.0, SVG Export Plug-In . SVG Version: 6.00 Build 0)  -->
<svg version="1.1" id="Layer_1" xmlns="http://www.w3.org/2000/svg" xmlns:xlink="http://www.w3.org/1999/xlink" x="0px" y="0px"
	 viewBox="0 0 512 512" style="enable-background:new 0 0 512 512;" xml:space="preserve">
<g>
	<g>
		<path d="M510.095,208.401c-2.155-2.663-5.691-3.781-8.987-2.845L340.137,251.33l-77.03-115.016
			c-1.589-2.371-4.252-3.794-7.105-3.794c-2.853,0-5.518,1.423-7.105,3.794L171.863,251.33L10.893,205.556
			c-3.297-0.937-6.831,0.181-8.987,2.845c-2.156,2.663-2.514,6.354-0.912,9.381l83.158,157.146c1.482,2.801,4.391,4.552,7.559,4.552
			h328.577c3.168,0,6.077-1.752,7.559-4.552l83.159-157.146C512.609,214.755,512.251,211.063,510.095,208.401z M264.553,169.211
			l58.292,87.037l-58.292,16.576V169.211z M247.448,169.211v103.612l-58.293-16.576L247.448,169.211z M25.482,227.487
			l207.674,59.054L95.273,359.375L25.482,227.487z M126.212,362.377L256,293.819l129.787,68.558H126.212z M416.727,359.375
			l-137.882-72.833l207.674-59.053L416.727,359.375z"/>
	</g>
</g>
<g>
</g>
<g>
</g>
<g>
</g>
<g>
</g>
<g>
</g>
<g>
</g>
<g>
</g>
<g>
</g>
<g>
</g>
<g>
</g>
<g>
</g>
<g>
</g>
<g>
</g>
<g>
</g>
<g>
</g>
</svg>
